<svg width="24" height="24" viewBox="0 0 24 24" fill="none" xmlns="http://www.w3.org/2000/svg">
<path d="M9 22.3538C9.55228 22.3538 10 21.8985 10 21.3369C10 20.7753 9.55228 20.3201 9 20.3201C8.44772 20.3201 8 20.7753 8 21.3369C8 21.8985 8.44772 22.3538 9 22.3538Z" fill="white" stroke="#878787" stroke-width="2" stroke-linecap="round" stroke-linejoin="round"/>
<path d="M20 22.3538C20.5523 22.3538 21 21.8985 21 21.3369C21 20.7753 20.5523 20.3201 20 20.3201C19.4477 20.3201 19 20.7753 19 21.3369C19 21.8985 19.4477 22.3538 20 22.3538Z" fill="white" stroke="#878787" stroke-width="2" stroke-linecap="round" stroke-linejoin="round"/>
<path d="M1 1H5L7.68 14.6156C7.77144 15.0838 8.02191 15.5043 8.38755 15.8036C8.75318 16.1029 9.2107 16.2619 9.68 16.2527H19.4C19.8693 16.2619 20.3268 16.1029 20.6925 15.8036C21.0581 15.5043 21.3086 15.0838 21.4 14.6156L23 6.08425H6" fill="white"/>
<path d="M1 1H5L7.68 14.6156C7.77144 15.0838 8.02191 15.5043 8.38755 15.8036C8.75318 16.1029 9.2107 16.2619 9.68 16.2527H19.4C19.8693 16.2619 20.3268 16.1029 20.6925 15.8036C21.0581 15.5043 21.3086 15.0838 21.4 14.6156L23 6.08425H6" stroke="#878787" stroke-width="2" stroke-linecap="round" stroke-linejoin="round"/>
</svg>
