<svg width="74" height="18" viewBox="0 0 74 18" fill="none" xmlns="http://www.w3.org/2000/svg">
<mask id="mask0_49_1521" style="mask-type:alpha" maskUnits="userSpaceOnUse" x="0" y="0" width="8" height="17">
<path d="M0 7.66197C0 3.43038 3.43038 0 7.66197 0V9.33803C7.66197 13.5696 4.23159 17 0 17V7.66197Z" fill="#C4C4C4"/>
</mask>
<g mask="url(#mask0_49_1521)">
<path d="M0 7.66197C0 3.43038 3.43038 0 7.66197 0V9.33803C7.66197 13.5696 4.23159 17 0 17V7.66197Z" fill="#02E0FE"/>
<g filter="url(#filter0_d_49_1521)">
<path d="M0 -1.91554C0 -6.14713 3.43038 -9.57751 7.66197 -9.57751V-0.239487C7.66197 3.9921 4.23159 7.42249 0 7.42249V-1.91554Z" fill="#11C0CB"/>
</g>
</g>
<mask id="mask1_49_1521" style="mask-type:alpha" maskUnits="userSpaceOnUse" x="8" y="0" width="9" height="17">
<path d="M16.0422 7.66197C16.0422 3.43038 12.6119 0 8.38026 0V9.33803C8.38026 13.5696 11.8106 17 16.0422 17V7.66197Z" fill="#C4C4C4"/>
</mask>
<g mask="url(#mask1_49_1521)">
<path d="M16.0422 7.66197C16.0422 3.43038 12.6119 0 8.38026 0V9.33803C8.38026 13.5696 11.8106 17 16.0422 17V7.66197Z" fill="#02E0FE"/>
<g filter="url(#filter1_d_49_1521)">
<path d="M16.0422 -1.91554C16.0422 -6.14713 12.6119 -9.57751 8.38026 -9.57751V-0.239487C8.38026 3.9921 11.8106 7.42249 16.0422 7.42249V-1.91554Z" fill="#11C0CB"/>
</g>
</g>
<path d="M26.6822 5.57C27.6722 5.57 28.4722 5.885 29.0822 6.515C29.6922 7.135 29.9972 8.005 29.9972 9.125V14H27.8972V9.41C27.8972 8.75 27.7322 8.245 27.4022 7.895C27.0722 7.535 26.6222 7.355 26.0522 7.355C25.4722 7.355 25.0122 7.535 24.6722 7.895C24.3422 8.245 24.1772 8.75 24.1772 9.41V14H22.0772V5.69H24.1772V6.725C24.4572 6.365 24.8122 6.085 25.2422 5.885C25.6822 5.675 26.1622 5.57 26.6822 5.57ZM35.8042 7.415H34.3492V14H32.2192V7.415H31.2742V5.69H32.2192V5.27C32.2192 4.25 32.5092 3.5 33.0892 3.02C33.6692 2.54 34.5442 2.315 35.7142 2.345V4.115C35.2042 4.105 34.8492 4.19 34.6492 4.37C34.4492 4.55 34.3492 4.875 34.3492 5.345V5.69H35.8042V7.415ZM39.6101 7.415V11.435C39.6101 11.715 39.6751 11.92 39.8051 12.05C39.9451 12.17 40.1751 12.23 40.4951 12.23H41.4701V14H40.1501C38.3801 14 37.4951 13.14 37.4951 11.42V7.415H36.5051V5.69H37.4951V3.635H39.6101V5.69H41.4701V7.415H39.6101ZM49.4006 12.005H45.2306L44.5406 14H42.3356L46.1006 3.515H48.5456L52.3106 14H50.0906L49.4006 12.005ZM48.8306 10.325L47.3156 5.945L45.8006 10.325H48.8306ZM55.8179 6.89C56.0879 6.51 56.4579 6.195 56.9279 5.945C57.4079 5.685 57.9529 5.555 58.5629 5.555C59.2729 5.555 59.9129 5.73 60.4829 6.08C61.0629 6.43 61.5179 6.93 61.8479 7.58C62.1879 8.22 62.3579 8.965 62.3579 9.815C62.3579 10.665 62.1879 11.42 61.8479 12.08C61.5179 12.73 61.0629 13.235 60.4829 13.595C59.9129 13.955 59.2729 14.135 58.5629 14.135C57.9529 14.135 57.4129 14.01 56.9429 13.76C56.4829 13.51 56.1079 13.195 55.8179 12.815V17.96H53.7179V5.69H55.8179V6.89ZM60.2129 9.815C60.2129 9.315 60.1079 8.885 59.8979 8.525C59.6979 8.155 59.4279 7.875 59.0879 7.685C58.7579 7.495 58.3979 7.4 58.0079 7.4C57.6279 7.4 57.2679 7.5 56.9279 7.7C56.5979 7.89 56.3279 8.17 56.1179 8.54C55.9179 8.91 55.8179 9.345 55.8179 9.845C55.8179 10.345 55.9179 10.78 56.1179 11.15C56.3279 11.52 56.5979 11.805 56.9279 12.005C57.2679 12.195 57.6279 12.29 58.0079 12.29C58.3979 12.29 58.7579 12.19 59.0879 11.99C59.4279 11.79 59.6979 11.505 59.8979 11.135C60.1079 10.765 60.2129 10.325 60.2129 9.815ZM65.9839 6.89C66.2539 6.51 66.6239 6.195 67.0939 5.945C67.5739 5.685 68.1189 5.555 68.7289 5.555C69.4389 5.555 70.0789 5.73 70.6489 6.08C71.2289 6.43 71.6839 6.93 72.0139 7.58C72.3539 8.22 72.5239 8.965 72.5239 9.815C72.5239 10.665 72.3539 11.42 72.0139 12.08C71.6839 12.73 71.2289 13.235 70.6489 13.595C70.0789 13.955 69.4389 14.135 68.7289 14.135C68.1189 14.135 67.5789 14.01 67.1089 13.76C66.6489 13.51 66.2739 13.195 65.9839 12.815V17.96H63.8839V5.69H65.9839V6.89ZM70.3789 9.815C70.3789 9.315 70.2739 8.885 70.0639 8.525C69.8639 8.155 69.5939 7.875 69.2539 7.685C68.9239 7.495 68.5639 7.4 68.1739 7.4C67.7939 7.4 67.4339 7.5 67.0939 7.7C66.7639 7.89 66.4939 8.17 66.2839 8.54C66.0839 8.91 65.9839 9.345 65.9839 9.845C65.9839 10.345 66.0839 10.78 66.2839 11.15C66.4939 11.52 66.7639 11.805 67.0939 12.005C67.4339 12.195 67.7939 12.29 68.1739 12.29C68.5639 12.29 68.9239 12.19 69.2539 11.99C69.5939 11.79 69.8639 11.505 70.0639 11.135C70.2739 10.765 70.3789 10.325 70.3789 9.815Z" fill="white"/>
<defs>
<filter id="filter0_d_49_1521" x="-22" y="-27.5775" width="51.662" height="61" filterUnits="userSpaceOnUse" color-interpolation-filters="sRGB">
<feFlood flood-opacity="0" result="BackgroundImageFix"/>
<feColorMatrix in="SourceAlpha" type="matrix" values="0 0 0 0 0 0 0 0 0 0 0 0 0 0 0 0 0 0 127 0" result="hardAlpha"/>
<feOffset dy="4"/>
<feGaussianBlur stdDeviation="11"/>
<feComposite in2="hardAlpha" operator="out"/>
<feColorMatrix type="matrix" values="0 0 0 0 0.8125 0 0 0 0 0.415503 0 0 0 0 0.0507812 0 0 0 1 0"/>
<feBlend mode="normal" in2="BackgroundImageFix" result="effect1_dropShadow_49_1521"/>
<feBlend mode="normal" in="SourceGraphic" in2="effect1_dropShadow_49_1521" result="shape"/>
</filter>
<filter id="filter1_d_49_1521" x="-13.6198" y="-27.5775" width="51.662" height="61" filterUnits="userSpaceOnUse" color-interpolation-filters="sRGB">
<feFlood flood-opacity="0" result="BackgroundImageFix"/>
<feColorMatrix in="SourceAlpha" type="matrix" values="0 0 0 0 0 0 0 0 0 0 0 0 0 0 0 0 0 0 127 0" result="hardAlpha"/>
<feOffset dy="4"/>
<feGaussianBlur stdDeviation="11"/>
<feComposite in2="hardAlpha" operator="out"/>
<feColorMatrix type="matrix" values="0 0 0 0 0.8125 0 0 0 0 0.415503 0 0 0 0 0.0507812 0 0 0 1 0"/>
<feBlend mode="normal" in2="BackgroundImageFix" result="effect1_dropShadow_49_1521"/>
<feBlend mode="normal" in="SourceGraphic" in2="effect1_dropShadow_49_1521" result="shape"/>
</filter>
</defs>
</svg>
