<svg fill="none" height="18" viewBox="0 0 74 18" width="74" xmlns="http://www.w3.org/2000/svg" xmlns:xlink="http://www.w3.org/1999/xlink"><filter id="a" color-interpolation-filters="sRGB" filterUnits="userSpaceOnUse" height="61" width="51.662" x="-22" y="-27.5775"><feFlood flood-opacity="0" result="BackgroundImageFix"/><feColorMatrix in="SourceAlpha" result="hardAlpha" type="matrix" values="0 0 0 0 0 0 0 0 0 0 0 0 0 0 0 0 0 0 127 0"/><feOffset dy="4"/><feGaussianBlur stdDeviation="11"/><feComposite in2="hardAlpha" operator="out"/><feColorMatrix type="matrix" values="0 0 0 0 0.8125 0 0 0 0 0.415503 0 0 0 0 0.0507812 0 0 0 1 0"/><feBlend in2="BackgroundImageFix" mode="normal" result="effect1_dropShadow_39_375"/><feBlend in="SourceGraphic" in2="effect1_dropShadow_39_375" mode="normal" result="shape"/></filter><filter id="b" color-interpolation-filters="sRGB" filterUnits="userSpaceOnUse" height="61" width="51.662" x="-13.6197" y="-27.5775"><feFlood flood-opacity="0" result="BackgroundImageFix"/><feColorMatrix in="SourceAlpha" result="hardAlpha" type="matrix" values="0 0 0 0 0 0 0 0 0 0 0 0 0 0 0 0 0 0 127 0"/><feOffset dy="4"/><feGaussianBlur stdDeviation="11"/><feComposite in2="hardAlpha" operator="out"/><feColorMatrix type="matrix" values="0 0 0 0 0.8125 0 0 0 0 0.415503 0 0 0 0 0.0507812 0 0 0 1 0"/><feBlend in2="BackgroundImageFix" mode="normal" result="effect1_dropShadow_39_375"/><feBlend in="SourceGraphic" in2="effect1_dropShadow_39_375" mode="normal" result="shape"/></filter><mask id="c" height="17" maskUnits="userSpaceOnUse" width="8" x="0" y="0"><path d="m0 7.66197c0-4.23159 3.43038-7.66197 7.66197-7.66197v9.33803c0 4.23157-3.43038 7.66197-7.66197 7.66197z" fill="#c4c4c4"/></mask><mask id="d" height="17" maskUnits="userSpaceOnUse" width="9" x="8" y="0"><path d="m16.0423 7.66197c0-4.23159-3.4304-7.66197-7.66201-7.66197v9.33803c0 4.23157 3.43041 7.66197 7.66201 7.66197z" fill="#c4c4c4"/></mask><g mask="url(#c)"><path d="m-.00002003 7.66197c0-4.23159 3.43038003-7.66197 7.66197003-7.66197v9.33803c0 4.23157-3.43038 7.66197-7.66197003 7.66197z" fill="#02e0fe"/><g filter="url(#a)"><path d="m-.00001001-1.91548c0-4.23159 3.43038001-7.66197 7.66197001-7.66197v9.338024c0 4.231586-3.43038 7.661976-7.66197001 7.661976z" fill="#11c0cb"/></g></g><g mask="url(#d)"><path d="m16.0423 7.66197c0-4.23159-3.4304-7.66197-7.66198-7.66197v9.33803c0 4.23157 3.43038 7.66197 7.66198 7.66197z" fill="#02e0fe"/><g filter="url(#b)"><path d="m16.0423-1.91548c0-4.23159-3.4304-7.66197-7.662-7.66197v9.338024c0 4.231586 3.4304 7.661976 7.662 7.661976z" fill="#11c0cb"/></g></g><path d="m26.6823 5.57c.99 0 1.79.315 2.4.945.61.62.915 1.49.915 2.61v4.875h-2.1v-4.59c0-.66-.165-1.165-.495-1.515-.33-.36-.78-.54-1.35-.54-.58 0-1.04.18-1.38.54-.33.35-.495.855-.495 1.515v4.59h-2.1v-8.31h2.1v1.035c.28-.36.635-.64 1.065-.84.44-.21.92-.315 1.44-.315zm9.122 1.845h-1.455v6.585h-2.13v-6.585h-.945v-1.725h.945v-.42c0-1.02.29-1.77.87-2.25s1.455-.705 2.625-.675v1.77c-.51-.01-.865.075-1.065.255s-.3.505-.3.975v.345h1.455zm3.8059 0v4.02c0 .28.065.485.195.615.14.12.37.18.69.18h.975v1.77h-1.32c-1.77 0-2.655-.86-2.655-2.58v-4.005h-.99v-1.725h.99v-2.055h2.115v2.055h1.86v1.725zm9.7904 4.59h-4.17l-.69 1.995h-2.205l3.765-10.485h2.445l3.765 10.485h-2.22zm-.57-1.68-1.515-4.38-1.515 4.38zm6.9873-3.435c.27-.38.64-.695 1.11-.945.48-.26 1.025-.39 1.635-.39.71 0 1.35.175 1.92.525.58.35 1.035.85 1.365 1.5.34.64.51 1.385.51 2.235s-.17 1.605-.51 2.265c-.33.65-.785 1.155-1.365 1.515-.57.36-1.21.54-1.92.54-.61 0-1.15-.125-1.62-.375-.46-.25-.835-.565-1.125-.945v5.145h-2.1v-12.27h2.1zm4.395 2.925c0-.5-.105-.93-.315-1.29-.2-.37-.47-.65-.81-.84-.33-.19-.69-.285-1.08-.285-.38 0-.74.1-1.08.3-.33.19-.6.47-.81.84-.2.37-.3.805-.3 1.305s.1.935.3 1.305c.21.37.48.655.81.855.34.19.7.285 1.08.285.39 0 .75-.1 1.08-.3.34-.2.61-.485.81-.855.21-.37.315-.81.315-1.32zm5.771-2.925c.27-.38.64-.695 1.11-.945.48-.26 1.025-.39 1.635-.39.71 0 1.35.175 1.92.525.58.35 1.035.85 1.365 1.5.34.64.51 1.385.51 2.235s-.17 1.605-.51 2.265c-.33.65-.785 1.155-1.365 1.515-.57.36-1.21.54-1.92.54-.61 0-1.15-.125-1.62-.375-.46-.25-.835-.565-1.125-.945v5.145h-2.1v-12.27h2.1zm4.395 2.925c0-.5-.105-.93-.315-1.29-.2-.37-.47-.65-.81-.84-.33-.19-.69-.285-1.08-.285-.38 0-.74.1-1.08.3-.33.19-.6.47-.81.84-.2.37-.3.805-.3 1.305s.1.935.3 1.305c.21.37.48.655.81.855.34.19.7.285 1.08.285.39 0 .75-.1 1.08-.3.34-.2.61-.485.81-.855.21-.37.315-.81.315-1.32z" fill="#212121"/></svg>