<svg width="20" height="24" viewBox="0 0 20 24" fill="none" xmlns="http://www.w3.org/2000/svg">
<path fill-rule="evenodd" clip-rule="evenodd" d="M10.0001 0.674072C8.13812 0.674072 6.35587 1.42635 5.04445 2.75987C3.73358 4.09282 3.00008 5.89718 3.00008 7.77517C3.00008 11.1895 2.28179 13.3116 1.61885 14.5475C1.28612 15.1678 0.962142 15.5747 0.737164 15.8162C0.624414 15.9372 0.535826 16.0174 0.482498 16.0626C0.455819 16.0852 0.437926 16.0991 0.430208 16.1049L0.427341 16.1071C0.0719848 16.3553 -0.0834162 16.8049 0.0441121 17.2203C0.173021 17.6402 0.560839 17.9268 1.00008 17.9268H19.0001C19.4393 17.9268 19.8271 17.6402 19.956 17.2203C20.0836 16.8049 19.9282 16.3553 19.5728 16.1071L19.5699 16.1049C19.5622 16.0991 19.5443 16.0852 19.5177 16.0626C19.4643 16.0174 19.3757 15.9372 19.263 15.8162C19.038 15.5747 18.714 15.1678 18.3813 14.5475C17.8015 13.4667 17.1794 11.708 17.0325 8.99987C17.0217 8.99995 17.0109 9 17.0001 9C16.2754 9 15.5957 8.80728 15.0095 8.47029C15.1003 11.7888 15.8353 14.0322 16.6189 15.4929C16.7012 15.6464 16.7839 15.791 16.8662 15.9268H3.13396C3.21625 15.791 3.29895 15.6464 3.3813 15.4929C4.21836 13.9325 5.00008 11.4787 5.00008 7.77517C5.00008 6.41693 5.53085 5.11762 6.47042 4.16222C7.40944 3.20738 8.67944 2.67407 10.0001 2.67407C11.1601 2.67407 12.2811 3.08558 13.173 3.83283C13.3745 3.17156 13.7426 2.58294 14.2284 2.11591C13.02 1.18676 11.5372 0.674072 10.0001 0.674072Z" fill="white"/>
<path d="M11.7301 20.9941C11.5543 21.3023 11.302 21.5581 10.9984 21.736C10.6947 21.9138 10.3505 22.0074 10.0001 22.0074C9.64976 22.0074 9.30553 21.9138 9.00191 21.736C8.6983 21.5581 8.44595 21.3023 8.27014 20.9941" stroke="white" stroke-width="2" stroke-linecap="round" stroke-linejoin="round"/>
<circle cx="17" cy="5" r="3" fill="#F96900"/>
</svg>
