<svg width="18" height="21" viewBox="0 0 18 21" fill="none" xmlns="http://www.w3.org/2000/svg">
<path d="M17 19.3201V17.2864C17 16.2076 16.5786 15.1731 15.8284 14.4103C15.0783 13.6475 14.0609 13.219 13 13.219H5C3.93913 13.219 2.92172 13.6475 2.17157 14.4103C1.42143 15.1731 1 16.2076 1 17.2864V19.3201" fill="white"/>
<path d="M17 19.3201V17.2864C17 16.2076 16.5786 15.1731 15.8284 14.4103C15.0783 13.6475 14.0609 13.219 13 13.219H5C3.93913 13.219 2.92172 13.6475 2.17157 14.4103C1.42143 15.1731 1 16.2076 1 17.2864V19.3201" stroke="#878787" stroke-width="2" stroke-linecap="round" stroke-linejoin="round"/>
<path d="M9 9.15161C11.2091 9.15161 13 7.33058 13 5.08423C13 2.83787 11.2091 1.01685 9 1.01685C6.79086 1.01685 5 2.83787 5 5.08423C5 7.33058 6.79086 9.15161 9 9.15161Z" fill="white" stroke="#878787" stroke-width="2" stroke-linecap="round" stroke-linejoin="round"/>
</svg>
